<svg width="1833" height="293" viewBox="0 0 1833 293" fill="none" xmlns="http://www.w3.org/2000/svg">
<path d="M0.5 291.633V1H39.3918V119.783H222.426V1H261.098V291.633H222.426V159.927H39.3918V291.633H0.5ZM365.908 291.633V52.9675H557.951V88.4374H401.944V149.754H495.988V185.223H401.944V256.713H559.709V291.633H365.908ZM764.935 87.8875H663.421V164.876H764.935C772.992 164.876 778.412 163.227 781.195 159.927C783.979 156.628 785.37 150.212 785.37 140.68V112.084C785.37 103.285 783.905 97.0528 780.976 93.3867C778.046 89.7206 772.699 87.8875 764.935 87.8875ZM627.385 291.633V52.9675H780.756C794.965 52.9675 805.146 56.6336 811.298 63.9659C817.597 71.1149 820.746 82.8465 820.746 99.1609V152.503C820.746 168.634 817.597 180.274 811.298 187.423C805.146 194.572 794.965 198.147 780.756 198.147H755.487L839.643 291.633H791.523L715.496 198.147H663.421V291.633H627.385ZM903.364 291.633V52.9675H1095.41V88.4374H939.4V149.754H1033.44V185.223H939.4V256.713H1097.16V291.633H903.364ZM1333.15 88.4374H1199.34V150.303H1321.73C1339.6 150.303 1351.76 154.245 1358.2 162.127C1364.79 169.826 1368.09 184.674 1368.09 206.67V235.266C1368.09 257.263 1364.87 272.203 1358.42 280.085C1352.12 287.784 1339.89 291.633 1321.73 291.633H1205.71C1187.55 291.633 1175.17 287.784 1168.58 280.085C1162.13 272.203 1158.91 257.263 1158.91 235.266V228.667L1191.87 220.143V255.613H1335.79V188.523H1212.96C1194.94 188.523 1182.71 184.674 1176.27 176.975C1169.82 169.092 1166.6 154.153 1166.6 132.156V109.609C1166.6 87.7958 1169.82 72.948 1176.27 65.0658C1182.71 57.0003 1194.94 52.9675 1212.96 52.9675H1319.09C1336.82 52.9675 1349.05 56.817 1355.79 64.5158C1362.52 72.2147 1365.89 85.7795 1365.89 105.21V110.984L1333.15 119.783V88.4374ZM1516.63 291.633V187.423L1417.09 52.9675H1460.82L1536.84 156.353L1609.35 52.9675H1651.54L1552.44 187.423V291.633H1516.63ZM1909.06 291.633H1873.25V53.5174H1909.06V291.633ZM2165.05 88.4374H2031.23V150.303H2153.62C2171.49 150.303 2183.65 154.245 2190.09 162.127C2196.69 169.826 2199.98 184.674 2199.98 206.67V235.266C2199.98 257.263 2196.76 272.203 2190.31 280.085C2184.02 287.784 2171.78 291.633 2153.62 291.633H2037.6C2019.44 291.633 2007.06 287.784 2000.47 280.085C1994.02 272.203 1990.8 257.263 1990.8 235.266V228.667L2023.76 220.143V255.613H2167.68V188.523H2044.85C2026.84 188.523 2014.6 184.674 2008.16 176.975C2001.71 169.092 1998.49 154.153 1998.49 132.156V109.609C1998.49 87.7958 2001.71 72.948 2008.16 65.0658C2014.6 57.0003 2026.84 52.9675 2044.85 52.9675H2150.98C2168.71 52.9675 2180.94 56.817 2187.68 64.5158C2194.42 72.2147 2197.78 85.7795 2197.78 105.21V110.984L2165.05 119.783V88.4374ZM2420.81 291.633L2531.11 52.9675H2564.07L2677.01 291.633H2637.9L2613.07 235.816H2481.23L2456.84 291.633H2420.81ZM2496.4 201.446H2597.69L2546.93 87.8875L2496.4 201.446ZM2931.24 97.2361C2931.24 100.719 2931.39 105.485 2931.68 111.534C2931.97 121.433 2932.12 127.757 2932.12 130.506V291.633H2902.45V52.9675H2932.12L3027.04 207.77L3114.27 52.9675H3147.67V291.633H3114.27V130.506C3114.27 124.641 3114.42 118.958 3114.71 113.459C3115.15 107.96 3115.74 102.644 3116.47 97.5111C3114.42 105.027 3112.29 111.717 3110.1 117.583C3107.9 123.266 3105.85 127.573 3103.95 130.506L3030.56 253.964H3021.11L2945.08 131.606C2942.44 127.39 2939.95 122.441 2937.61 116.758C2935.27 111.076 2933.14 104.568 2931.24 97.2361ZM3205.24 291.633L3315.54 52.9675H3348.5L3461.44 291.633H3422.33L3397.5 235.816H3265.67L3241.28 291.633H3205.24ZM3280.83 201.446H3382.12L3331.36 87.8875L3280.83 201.446ZM3585.59 88.4374V291.633H3549.77V88.4374H3459.69V52.9675H3676.12V88.4374H3585.59ZM3838.72 88.4374V291.633H3802.9V88.4374H3712.81V52.9675H3929.25V88.4374H3838.72ZM3983.52 291.633V52.9675H4175.56V88.4374H4019.55V149.754H4113.6V185.223H4019.55V256.713H4177.32V291.633H3983.52ZM4382.55 87.8875H4281.03V164.876H4382.55C4390.6 164.876 4396.02 163.227 4398.81 159.927C4401.59 156.628 4402.98 150.212 4402.98 140.68V112.084C4402.98 103.285 4401.52 97.0528 4398.59 93.3867C4395.66 89.7206 4390.31 87.8875 4382.55 87.8875ZM4245 291.633V52.9675H4398.37C4412.57 52.9675 4422.76 56.6336 4428.91 63.9659C4435.21 71.1149 4438.36 82.8465 4438.36 99.1609V152.503C4438.36 168.634 4435.21 180.274 4428.91 187.423C4422.76 194.572 4412.57 198.147 4398.37 198.147H4373.1L4457.25 291.633H4409.13L4333.11 198.147H4281.03V291.633H4245ZM4720.71 255.613H4880.01V88.4374H4720.71V255.613ZM4684.67 109.609C4684.67 87.7958 4687.97 72.948 4694.56 65.0658C4701.15 57.0003 4713.46 52.9675 4731.47 52.9675H4869.24C4887.26 52.9675 4899.57 57.0003 4906.16 65.0658C4912.75 72.948 4916.05 87.7958 4916.05 109.609V235.266C4916.05 257.08 4912.75 271.928 4906.16 279.81C4899.71 287.692 4887.41 291.633 4869.24 291.633H4731.47C4713.16 291.633 4700.79 287.784 4694.34 280.085C4687.89 272.203 4684.67 257.263 4684.67 235.266V109.609ZM4999.98 291.633V52.9675H5189.83V88.4374H5036.02V162.127H5122.81V197.047H5036.02V291.633H4999.98ZM5557.43 87.8875H5448.67V163.227H5557.43C5565.49 163.227 5571.06 161.577 5574.13 158.277C5577.36 154.794 5578.97 148.929 5578.97 140.68V110.434C5578.97 102.185 5577.43 96.4112 5574.35 93.1117C5571.28 89.6289 5565.64 87.8875 5557.43 87.8875ZM5412.63 291.633V52.9675H5573.69C5588.49 52.9675 5599.11 56.542 5605.55 63.691C5612.15 70.8399 5615.44 82.6632 5615.44 99.1609V152.503C5615.44 168.634 5612.15 180.274 5605.55 187.423C5599.11 194.572 5588.49 198.147 5573.69 198.147H5448.67V291.633H5412.63ZM5685.54 291.633V52.9675H5877.58V88.4374H5721.57V149.754H5815.61V185.223H5721.57V256.713H5879.34V291.633H5685.54ZM6084.56 87.8875H5983.05V164.876H6084.56C6092.62 164.876 6098.04 163.227 6100.82 159.927C6103.61 156.628 6105 150.212 6105 140.68V112.084C6105 103.285 6103.53 97.0528 6100.6 93.3867C6097.67 89.7206 6092.33 87.8875 6084.56 87.8875ZM5947.01 291.633V52.9675H6100.38C6114.59 52.9675 6124.77 56.6336 6130.93 63.9659C6137.22 71.1149 6140.37 82.8465 6140.37 99.1609V152.503C6140.37 168.634 6137.22 180.274 6130.93 187.423C6124.77 194.572 6114.59 198.147 6100.38 198.147H6075.11L6159.27 291.633H6111.15L6035.12 198.147H5983.05V291.633H5947.01ZM6391.3 88.4374H6257.49V150.303H6379.88C6397.75 150.303 6409.91 154.245 6416.35 162.127C6422.94 169.826 6426.24 184.674 6426.24 206.67V235.266C6426.24 257.263 6423.02 272.203 6416.57 280.085C6410.27 287.784 6398.04 291.633 6379.88 291.633H6263.86C6245.7 291.633 6233.32 287.784 6226.73 280.085C6220.28 272.203 6217.06 257.263 6217.06 235.266V228.667L6250.02 220.143V255.613H6393.94V188.523H6271.11C6253.09 188.523 6240.86 184.674 6234.42 176.975C6227.97 169.092 6224.75 154.153 6224.75 132.156V109.609C6224.75 87.7958 6227.97 72.948 6234.42 65.0658C6240.86 57.0003 6253.09 52.9675 6271.11 52.9675H6377.24C6394.97 52.9675 6407.2 56.817 6413.94 64.5158C6420.67 72.2147 6424.04 85.7795 6424.04 105.21V110.984L6391.3 119.783V88.4374ZM6654.76 87.8875H6545.99V163.227H6654.76C6662.81 163.227 6668.38 161.577 6671.46 158.277C6674.68 154.794 6676.29 148.929 6676.29 140.68V110.434C6676.29 102.185 6674.75 96.4112 6671.68 93.1117C6668.6 89.6289 6662.96 87.8875 6654.76 87.8875ZM6509.96 291.633V52.9675H6671.02C6685.81 52.9675 6696.43 56.542 6702.88 63.691C6709.47 70.8399 6712.77 82.6632 6712.77 99.1609V152.503C6712.77 168.634 6709.47 180.274 6702.88 187.423C6696.43 194.572 6685.81 198.147 6671.02 198.147H6545.99V291.633H6509.96ZM6782.86 291.633V52.9675H6974.9V88.4374H6818.9V149.754H6912.94V185.223H6818.9V256.713H6976.66V291.633H6782.86ZM7208.91 88.4374H7075.76V255.613H7208.91V198.697L7244.95 207.22V235.266C7244.95 257.08 7241.65 271.928 7235.06 279.81C7228.62 287.692 7216.31 291.633 7198.15 291.633H7086.08C7067.92 291.633 7055.62 287.875 7049.17 280.36C7042.87 272.661 7039.72 257.63 7039.72 235.266V109.609C7039.72 87.4292 7042.95 72.4897 7049.39 64.7908C7055.84 56.9086 7068.07 52.9675 7086.08 52.9675H7198.15C7216.31 52.9675 7228.62 57.0003 7235.06 65.0658C7241.65 72.948 7244.95 87.7958 7244.95 109.609V132.156L7208.91 139.58V88.4374ZM7413.26 88.4374V291.633H7377.45V88.4374H7287.36V52.9675H7503.79V88.4374H7413.26ZM7593 291.633H7557.18V53.5174H7593V291.633ZM7756.26 291.633L7646.39 52.9675H7685.06L7770.54 244.89L7852.5 52.9675H7888.09L7783.72 291.633H7756.26ZM7942.15 291.633V52.9675H8134.19V88.4374H7978.18V149.754H8072.23V185.223H7978.18V256.713H8135.95V291.633H7942.15Z" stroke="#FEFEFE" stroke-opacity="0.5"/>
</svg>
